HIERARCHY
ROOT Hips
{
	OFFSET 0.000000 0.000000 0.000000
	CHANNELS 6 Xposition Yposition Zposition Zrotation Yrotation Xrotation 
	JOINT LHipJoint
	{
		OFFSET 0.000000 0.000000 0.000000
		CHANNELS 3 Zrotation Yrotation Xrotation
		JOINT LeftUpLeg
		{
			OFFSET 1.363060 -1.794630 0.839290
			CHANNELS 3 Zrotation Yrotation Xrotation
			JOINT LeftLeg
			{
				OFFSET 2.448110 -6.726130 0.000000
				CHANNELS 3 Zrotation Yrotation Xrotation
				JOINT LeftFoot
				{
					OFFSET 2.562200 -7.039590 0.000000
					CHANNELS 3 Zrotation Yrotation Xrotation
					JOINT LeftToeBase
					{
						OFFSET 0.157640 -0.433110 2.322550
						CHANNELS 3 Zrotation Yrotation Xrotation
						End Site
						{
							OFFSET 0.000000 0.000000 0.000000
						}
					}
				}
			}
		}
	}
	JOINT RHipJoint
	{
		OFFSET 0.000000 0.000000 0.000000
		CHANNELS 3 Zrotation Yrotation Xrotation
		JOINT RightUpLeg
		{
			OFFSET -1.305520 -1.794630 0.839290
			CHANNELS 3 Zrotation Yrotation Xrotation
			JOINT RightLeg
			{
				OFFSET -2.542530 -6.985550 0.000000
				CHANNELS 3 Zrotation Yrotation Xrotation
				JOINT RightFoot
				{
					OFFSET -2.568260 -7.056230 0.000000
					CHANNELS 3 Zrotation Yrotation Xrotation
					JOINT RightToeBase
					{
						OFFSET -0.164730 -0.452590 2.363150
						CHANNELS 3 Zrotation Yrotation Xrotation
						End Site
						{
							OFFSET 0.000000 0.000000 0.000000
						}
					}
				}
			}
		}
	}
	JOINT LowerBack
	{
		OFFSET 0.000000 0.000000 0.000000
		CHANNELS 3 Zrotation Yrotation Xrotation
		JOINT Spine
		{
			OFFSET 0.028270 2.035590 -0.193380
			CHANNELS 3 Zrotation Yrotation Xrotation
			JOINT Spine1
			{
				OFFSET 0.056720 2.048850 -0.042750
				CHANNELS 3 Zrotation Yrotation Xrotation
				JOINT Neck
				{
					OFFSET 0.000000 0.000000 0.000000
					CHANNELS 3 Zrotation Yrotation Xrotation
					JOINT Neck1
					{
						OFFSET -0.054170 1.746240 0.172020
						CHANNELS 3 Zrotation Yrotation Xrotation
						JOINT Head
						{
							OFFSET 0.104070 1.761360 -0.123970
							CHANNELS 3 Zrotation Yrotation Xrotation
							End Site
							{
								OFFSET 0.000000 0.000000 0.000000
							}
						}
					}
				}
				JOINT LeftShoulder
				{
					OFFSET 0.000000 0.000000 0.000000
					CHANNELS 3 Zrotation Yrotation Xrotation
					JOINT LeftArm
					{
						OFFSET 3.362410 1.200890 -0.311210
						CHANNELS 3 Zrotation Yrotation Xrotation
						JOINT LeftForeArm
						{
							OFFSET 4.983000 -0.000000 -0.000000
							CHANNELS 3 Zrotation Yrotation Xrotation
							JOINT LeftHand
							{
								OFFSET 3.483560 -0.000000 -0.000000
								CHANNELS 3 Zrotation Yrotation Xrotation
								JOINT LeftFingerBase
								{
									OFFSET 0.000000 0.000000 0.000000
									CHANNELS 3 Zrotation Yrotation Xrotation
									JOINT LeftHandIndex1
									{
										OFFSET 0.715260 -0.000000 -0.000000
										CHANNELS 3 Zrotation Yrotation Xrotation
										End Site
										{
											OFFSET 0.000000 0.000000 0.000000
										}
									}
								}
								JOINT LThumb
								{
									OFFSET 0.000000 0.000000 0.000000
									CHANNELS 3 Zrotation Yrotation Xrotation
									End Site
									{
										OFFSET 0.000000 0.000000 0.000000
									}
								}
							}
						}
					}
				}
				JOINT RightShoulder
				{
					OFFSET 0.000000 0.000000 0.000000
					CHANNELS 3 Zrotation Yrotation Xrotation
					JOINT RightArm
					{
						OFFSET -3.136600 1.374050 -0.404650
						CHANNELS 3 Zrotation Yrotation Xrotation
						JOINT RightForeArm
						{
							OFFSET -5.241900 -0.000000 -0.000000
							CHANNELS 3 Zrotation Yrotation Xrotation
							JOINT RightHand
							{
								OFFSET -3.444170 -0.000000 -0.000000
								CHANNELS 3 Zrotation Yrotation Xrotation
								JOINT RightFingerBase
								{
									OFFSET 0.000000 0.000000 0.000000
									CHANNELS 3 Zrotation Yrotation Xrotation
									JOINT RightHandIndex1
									{
										OFFSET -0.622530 -0.000000 -0.000000
										CHANNELS 3 Zrotation Yrotation Xrotation
										End Site
										{
											OFFSET 0.000000 0.000000 0.000000
										}
									}
								}
								JOINT RThumb
								{
									OFFSET 0.000000 0.000000 0.000000
									CHANNELS 3 Zrotation Yrotation Xrotation
									End Site
									{
										OFFSET 0.000000 0.000000 0.000000
									}
								}
							}
						}
					}
				}
			}
		}
	}
}
MOTION
Frames: 11
Frame Time: 0.008333
-9.995307 16.996110 0.136706 162.796443 86.807570 170.310733 -11.226083 5.709831 0.466188 -1.016034 9.033150 4.759863 -0.413858 2.253210 29.425046 0.940142 -6.540592 26.117087 -3.932400 0.000000 -75.017700 9.419207 -0.143312 1.448003 10.513712 -3.401706 -30.968348 1.777932 -0.654595 20.464526 -2.098895 -9.985638 -2.291391 -1.859501 -0.000000 -22.473700 6.038286 -7.531487 -3.295829 1.195957 -8.001446 -3.660419 -4.953796 -8.064844 -0.078434 9.445528 -18.896958 -9.814456 -2.273073 -0.146434 -0.478685 0.000000 0.000000 0.000000 12.654303 -2.146620 -1.672117 -36.996105 -14.641372 7.535095 178.645286 -80.416550 179.823947 17.628303 -2.766194 -0.533498 -0.260579 0.636165 -0.000000 0.000000 0.000000 0.000000 0.000000 0.000000 0.000000 11.149445 -18.338147 2.623333 66.906588 -30.434561 -12.515341 3.186526 39.045427 -0.008631 -2.093708 -4.288367 0.083730 0.128908 0.009620 -0.000000 0.000000 0.000000 0.000000 0.000000 0.000000 0.000000 
-9.802446 16.938474 0.147364 168.537250 87.069261 175.674967 -11.475850 5.779469 0.354429 0.183456 10.161094 3.769438 -0.332470 2.369494 32.222728 1.063717 -6.881619 26.971201 -4.266100 0.000000 -72.039500 9.345676 -0.138510 1.118686 11.233415 -4.239542 -31.550166 1.747572 -0.945494 23.917389 -2.004760 -9.261269 -3.573074 -1.456000 0.000000 -21.088600 6.581120 -7.428146 -2.955350 1.250563 -7.934246 -3.618664 -5.178148 -7.999724 -0.130382 9.619100 -18.658030 -9.935149 -2.435758 -0.158323 -0.517081 0.000000 0.000000 0.000000 11.889278 -1.983104 -1.504322 -37.089363 -14.132417 7.793190 178.656043 -80.136222 179.823467 17.813671 -2.994164 -0.575822 -0.271326 0.637801 -0.000000 0.000000 0.000000 0.000000 0.000000 0.000000 0.000000 11.850214 -18.059291 2.641509 67.033697 -29.190166 -13.294177 3.127205 38.557011 -0.008396 -3.101215 -4.144346 0.117336 0.128581 0.004216 -0.000000 0.000000 0.000000 0.000000 0.000000 0.000000 0.000000 
-9.614818 16.878895 0.156763 174.993771 87.353215 -178.248743 -11.787847 5.827400 0.209160 1.437459 11.367456 2.705097 -0.260948 2.499147 35.106937 1.192498 -6.792193 27.572247 -4.351900 -0.000000 -68.531300 9.204172 -0.137246 0.788236 11.991430 -5.051481 -31.965508 1.724977 -1.176177 27.083661 -1.936176 -8.611614 -5.126749 -1.048100 -0.000000 -19.672700 7.094540 -7.292638 -2.560025 1.289938 -7.831658 -3.570841 -5.430910 -7.900856 -0.211066 9.842053 -18.366732 -10.043955 -2.622078 -0.172307 -0.553921 0.000000 0.000000 0.000000 11.074627 -1.866012 -1.337009 -37.286365 -13.606385 8.069608 178.672989 -79.916549 179.821497 18.195583 -3.295440 -0.638002 -0.286452 0.640097 -0.000000 0.000000 0.000000 0.000000 0.000000 0.000000 0.000000 12.671468 -17.724097 2.668337 67.135267 -27.813351 -13.935221 3.060684 38.003077 -0.008249 -4.208328 -3.980447 0.151039 0.127351 -0.001113 -0.000000 0.000000 0.000000 0.000000 0.000000 0.000000 0.000000 
-9.432508 16.817967 0.165035 -177.986405 87.622324 -171.612525 -12.173483 5.833396 0.030489 2.724304 12.621734 1.588526 -0.188378 2.641792 38.052564 1.321723 -6.199540 27.847407 -4.132200 -0.000000 -64.684100 8.974427 -0.162574 0.466827 12.773879 -5.807244 -32.197106 1.714897 -1.354205 29.931259 -1.897244 -8.046319 -6.902322 -0.645100 -0.000000 -18.258700 7.546667 -7.135965 -2.115170 1.310543 -7.702242 -3.516564 -5.701634 -7.777319 -0.316917 10.106605 -18.021203 -10.133902 -2.826137 -0.187923 -0.587410 0.000000 0.000000 0.000000 10.229494 -1.788503 -1.172362 -37.617376 -13.084970 8.373886 178.699388 -79.808239 179.818600 18.732990 -3.660539 -0.718942 -0.304731 0.642546 -0.000000 0.000000 0.000000 0.000000 0.000000 0.000000 0.000000 13.586299 -17.338385 2.701458 67.219729 -26.298846 -14.424862 2.986779 37.364667 -0.008194 -5.411883 -3.788239 0.183235 0.125081 -0.006340 -0.000000 0.000000 0.000000 0.000000 0.000000 0.000000 0.000000 
-9.255447 16.756520 0.172876 -170.806552 87.820824 -164.823931 -12.615051 5.771528 -0.180725 4.008984 13.874344 0.452613 -0.101091 2.792020 41.026453 1.447607 -5.072501 27.736068 -3.585200 -0.000000 -60.692899 8.662851 -0.236998 0.164344 13.552367 -6.497566 -32.238388 1.721796 -1.495808 32.444689 -1.888506 -7.564269 -8.829059 -0.253800 0.000000 -16.897900 7.917458 -6.977468 -1.628031 1.310102 -7.563809 -3.457266 -5.985413 -7.646627 -0.450436 10.407636 -17.604345 -10.190399 -3.046425 -0.205181 -0.613434 0.000000 0.000000 0.000000 9.364802 -1.771958 -1.006839 -38.082834 -12.546732 8.708072 178.738863 -79.838936 179.815571 19.366197 -4.064630 -0.814357 -0.324615 0.644161 -0.000000 0.000000 0.000000 0.000000 0.000000 0.000000 0.000000 14.586418 -16.894261 2.737466 67.290669 -24.674797 -14.754916 2.904410 36.656551 -0.008268 -6.697323 -3.579817 0.212927 0.121629 -0.011367 -0.000000 0.000000 0.000000 0.000000 0.000000 0.000000 0.000000 
-9.083217 16.695497 0.180857 -163.808535 87.911812 -158.223138 -13.075785 5.626101 -0.421516 5.267787 15.081872 -0.684458 0.008900 2.944784 43.997045 1.568415 -3.442906 27.188423 -2.741500 0.000000 -56.725700 8.297358 -0.370720 -0.109255 14.310442 -7.106984 -32.090478 1.748257 -1.616673 34.614634 -1.908229 -7.167909 -10.820586 0.118601 0.000000 -15.631700 8.217465 -6.829971 -1.111462 1.293137 -7.429477 -3.394958 -6.274035 -7.521069 -0.607357 10.736411 -17.110350 -10.205277 -3.277351 -0.223631 -0.629567 0.000000 0.000000 0.000000 8.495845 -1.809815 -0.837725 -38.703193 -11.994904 9.079680 178.793950 -80.063526 179.813246 20.022634 -4.490270 -0.919169 -0.344047 0.644147 -0.000000 0.000000 0.000000 0.000000 0.000000 0.000000 0.000000 15.648263 -16.392400 2.772150 67.349608 -22.948781 -14.908189 2.814553 35.877909 -0.008513 -8.036924 -3.369447 0.239313 0.117019 -0.016159 -0.000000 0.000000 0.000000 0.000000 0.000000 0.000000 0.000000 
-8.915266 16.636025 0.189578 -157.275591 87.890193 -152.087405 -13.512808 5.399015 -0.686322 6.473562 16.209415 -1.815268 0.140819 3.098712 46.929346 1.684179 -1.395287 26.174874 -1.679600 0.000000 -52.886900 7.918110 -0.556099 -0.347457 15.033295 -7.615029 -31.759807 1.791963 -1.727181 36.442427 -1.951966 -6.860170 -12.783941 0.465300 -0.000001 -14.513499 8.466358 -6.696907 -0.580082 1.265643 -7.303549 -3.332055 -6.560081 -7.403854 -0.782547 11.084878 -16.534206 -10.172369 -3.513108 -0.242762 -0.633827 0.000000 0.000000 0.000000 7.635880 -1.888919 -0.662177 -39.496154 -11.423391 9.492892 178.864921 -80.536170 179.812403 20.630621 -4.919672 -1.026904 -0.360883 0.641617 -0.000000 0.000000 0.000000 0.000000 0.000000 0.000000 0.000000 16.749319 -15.827712 2.801571 67.394096 -21.129813 -14.865515 2.719328 35.036746 -0.008979 -9.390007 -3.178959 0.262794 0.111438 -0.020749 -0.000000 0.000000 0.000000 0.000000 0.000000 0.000000 0.000000 
-8.750844 16.579371 0.199715 -151.420350 87.779441 -146.619642 -13.891910 5.107647 -0.966866 7.587977 17.231416 -2.942816 0.287396 3.255501 49.785538 1.795787 0.948185 24.691848 -0.510700 0.000000 -49.213299 7.563466 -0.772633 -0.547791 15.700570 -8.002895 -31.262049 1.845944 -1.831283 37.943774 -2.013520 -6.642573 -14.632673 0.780800 -0.000000 -13.600900 8.671643 -6.574887 -0.049287 1.230715 -7.182978 -3.271240 -6.837261 -7.290957 -0.972175 11.446801 -15.870264 -10.086136 -3.748904 -0.262131 -0.624286 0.000000 0.000000 0.000000 6.798158 -1.999557 -0.477853 -40.473594 -10.804312 9.941780 178.949250 -81.302461 179.813705 21.126270 -5.335036 -1.129989 -0.373100 0.635566 -0.000000 0.000000 0.000000 0.000000 0.000000 0.000000 0.000000 17.873321 -15.188641 2.822401 67.417268 -19.235130 -14.603977 2.621519 34.156967 -0.009717 -10.707119 -3.035040 0.285072 0.105234 -0.025217 -0.000000 0.000000 0.000000 0.000000 0.000000 0.000000 0.000000 
-8.589035 16.526858 0.211206 -146.175711 87.608701 -141.737385 -14.206944 4.769914 -1.253326 8.591152 18.138269 -4.087245 0.440791 3.415878 52.535466 1.904078 3.435403 22.762780 0.635700 0.000000 -45.687600 7.245436 -1.004979 -0.706851 16.313292 -8.239016 -30.617262 1.903113 -1.928429 39.133274 -2.090239 -6.532176 -16.296016 1.063500 0.000000 -12.923500 8.840488 -6.458136 0.462680 1.192934 -7.062543 -3.213356 -7.093388 -7.176571 -1.160882 11.810695 -15.134251 -9.955655 -3.974984 -0.280724 -0.603108 0.000000 0.000000 0.000000 5.992573 -2.088602 -0.285419 -41.661749 -10.170008 10.424695 179.041044 -82.442636 179.817466 21.467742 -5.729632 -1.222944 -0.379194 0.625426 -0.000000 0.000000 0.000000 0.000000 0.000000 0.000000 0.000000 18.983594 -14.484335 2.829415 67.416507 -17.242754 -14.109376 2.525947 33.237806 -0.010742 -11.926904 -2.946679 0.307448 0.098967 -0.029749 -0.000000 0.000000 0.000000 0.000000 0.000000 0.000000 0.000000 
-8.428998 16.479847 0.224147 -141.522308 87.404259 -137.408004 -14.455246 4.404464 -1.534792 9.451884 18.918152 -5.268130 0.593284 3.578549 55.148387 2.009550 5.923080 20.443755 1.644200 0.000000 -42.257000 6.973021 -1.238406 -0.823393 16.864954 -8.309936 -29.855511 1.956772 -2.017466 40.037039 -2.179127 -6.538710 -17.728036 1.315300 0.000000 -12.487800 8.968329 -6.343587 0.937680 1.153436 -6.939564 -3.160290 -7.320723 -7.057618 -1.339703 12.167745 -14.333084 -9.786278 -4.186048 -0.298008 -0.571311 0.000000 0.000000 0.000000 5.228242 -2.128981 -0.084925 -43.068879 -9.517815 10.923102 179.131449 -84.010467 179.823777 21.636932 -6.094824 -1.300887 -0.378412 0.610548 -0.000000 0.000000 0.000000 0.000000 0.000000 0.000000 0.000000 20.059751 -13.713473 2.818382 67.387672 -15.157497 -13.376788 2.436748 32.309253 -0.012051 -12.984657 -2.921717 0.331125 0.093247 -0.034480 -0.000000 0.000000 0.000000 0.000000 0.000000 0.000000 0.000000 
-8.269902 16.439685 0.238796 -137.510737 87.194863 -133.669934 -14.633614 4.031746 -1.799517 10.124102 19.555255 -6.505189 0.737242 3.740426 57.594201 2.112575 8.295950 17.819752 2.432000 -0.000000 -38.889800 6.756641 -1.457652 -0.899605 17.337456 -8.227849 -29.018130 2.001357 -2.096864 40.693967 -2.275900 -6.656655 -18.912017 1.539700 0.000000 -12.288401 9.036928 -6.229983 1.359102 1.109661 -6.812928 -3.114612 -7.514843 -6.932891 -1.505316 12.512809 -13.474904 -9.580818 -4.379759 -0.313791 -0.529116 0.000000 0.000000 0.000000 4.520860 -2.123947 0.122089 -44.696278 -8.806220 11.396250 179.209690 -86.033439 179.832539 21.635179 -6.421607 -1.360124 -0.370546 0.590278 -0.000000 0.000000 0.000000 0.000000 0.000000 0.000000 0.000000 21.093452 -12.876699 2.787089 67.322031 -12.998727 -12.387655 2.357180 31.417407 -0.013595 -13.829780 -2.961003 0.356807 0.088669 -0.039452 -0.000000 0.000000 0.000000 0.000000 0.000000 0.000000 0.000000 
